<?xml version="1.0" encoding="UTF-8"?>
<svg id="Ebene_1" data-name="Ebene 1" xmlns="http://www.w3.org/2000/svg" version="1.1" viewBox="0 0 24 24">
  <defs>
    <style>
      .cls-1 {
        fill: #000;
        stroke-width: 0px;
      }
    </style>
  </defs>
  <path class="cls-1" d="M16.5,3c-1.7,0-3.4.8-4.5,2.1-1.1-1.3-2.8-2.1-4.5-2.1-3.1,0-5.5,2.4-5.5,5.5s3.4,6.9,8.5,11.5l1.5,1.3,1.5-1.3c5.1-4.7,8.5-7.8,8.5-11.5s-2.4-5.5-5.5-5.5ZM13.2,18.6l-1.2,1.1-1.2-1.1c-4.2-3.8-7-6.3-7-9.4s2-4.5,4.5-4.5,2.8.7,3.7,1.7c.9-1,2.2-1.7,3.7-1.7,2.5,0,4.5,2,4.5,4.5s-2.8,5.6-7,9.4Z"/>
</svg>